<?xml version="1.0" standalone="no"?>
<!DOCTYPE svg PUBLIC "-//W3C//DTD SVG 20010904//EN"
 "http://www.w3.org/TR/2001/REC-SVG-20010904/DTD/svg10.dtd">
<svg version="1.0" xmlns="http://www.w3.org/2000/svg"
 width="24.000000pt" height="24.000000pt" viewBox="0 0 24.000000 24.000000"
 preserveAspectRatio="xMidYMid meet">

<g transform="translate(0.000000,24.000000) scale(0.100000,-0.100000)"
fill=var(--body-text-color) stroke="none">
<path d="M71 206 c-87 -48 -50 -186 49 -186 51 0 100 49 100 99 0 75 -83 124
-149 87z m106 -28 c30 -28 31 -83 1 -115 -12 -13 -25 -23 -30 -23 -13 0 -9 44
5 59 10 11 10 14 0 18 -15 6 -17 33 -3 33 6 0 10 5 10 10 0 6 -11 10 -25 10
-18 0 -25 -5 -25 -20 0 -10 -8 -23 -17 -29 -15 -8 -16 -12 -5 -22 13 -14 17
-59 5 -59 -22 0 -53 47 -53 79 0 72 84 109 137 59z"/>
</g>
</svg>
