<?xml version="1.0" standalone="no"?>
<!DOCTYPE svg PUBLIC "-//W3C//DTD SVG 20010904//EN"
 "http://www.w3.org/TR/2001/REC-SVG-20010904/DTD/svg10.dtd">
<svg version="1.0" xmlns="http://www.w3.org/2000/svg"
 width="720.000000pt" height="720.000000pt" viewBox="0 0 720.000000 720.000000"
 preserveAspectRatio="xMidYMid meet">

<g transform="translate(0.000000,720.000000) scale(0.100000,-0.100000)"
fill="#000000" stroke="none">
<path d="M965 7189 c-244 -31 -469 -141 -641 -313 -176 -175 -282 -398 -314
-656 -14 -117 -14 -5123 0 -5240 32 -258 137 -478 315 -655 177 -178 394 -282
655 -314 118 -15 5122 -15 5240 0 261 32 478 136 655 314 178 177 282 394 314
655 15 116 15 5121 1 5240 -32 258 -137 479 -314 656 -177 177 -398 282 -656
314 -106 13 -5152 12 -5255 -1z m4470 -1400 c94 -5 185 -12 203 -15 l32 -6 0
-404 0 -404 -248 0 c-272 0 -384 -10 -470 -42 -76 -28 -142 -94 -173 -173 -23
-59 -24 -68 -27 -427 l-3 -368 445 0 c245 0 446 -3 446 -7 0 -5 -25 -209 -57
-455 l-57 -448 -388 0 -388 0 0 -1160 0 -1160 -470 0 -470 0 0 1160 0 1160
-390 0 -390 0 0 455 0 455 390 0 390 0 0 370 c0 203 5 416 11 472 36 335 178
610 401 781 174 132 375 206 618 226 107 9 344 5 595 -10z"/>
</g>
</svg>
