<?xml version="1.0" standalone="no"?>
<!DOCTYPE svg PUBLIC "-//W3C//DTD SVG 20010904//EN"
 "http://www.w3.org/TR/2001/REC-SVG-20010904/DTD/svg10.dtd">
<svg version="1.0" xmlns="http://www.w3.org/2000/svg"
 width="720.000000pt" height="720.000000pt" viewBox="0 0 720.000000 720.000000"
 preserveAspectRatio="xMidYMid meet">

<g transform="translate(0.000000,720.000000) scale(0.100000,-0.100000)"
fill="#000000" stroke="none">
<path d="M0 6442 l0 -757 965 -965 964 -964 4 129 c1 72 5 -183 7 -565 l5
-695 5 1005 c7 1123 2 1056 80 1215 92 190 272 334 477 382 73 17 145 18 1098
18 942 0 1025 -2 1090 -18 206 -52 388 -201 479 -390 71 -146 68 -98 70 -1237
1 -1151 5 -1083 -74 -1245 -90 -184 -255 -321 -457 -378 -77 -21 -86 -22
-1083 -27 l-1005 -5 700 -5 c385 -2 639 -6 565 -7 l-134 -4 964 -964 965 -965
757 0 758 0 0 3600 0 3600 -3600 0 -3600 0 0 -758z"/>
<path d="M3145 5100 l-610 -5 -66 -26 c-133 -52 -252 -159 -313 -284 -58 -119
-56 -78 -54 -1190 l3 -1020 5 695 c3 382 6 605 8 495 l2 -200 723 -722 722
-723 200 -3 c110 -1 -108 -3 -485 -5 -560 -1 -696 1 -745 12 -69 17 -85 13
-28 -6 51 -17 2069 -24 2151 -7 146 30 304 150 374 285 71 136 68 75 68 1211
l0 1022 -25 78 c-59 188 -211 330 -410 384 -56 16 -440 18 -1520 9z m1523
-325 c49 -21 81 -52 103 -100 35 -77 15 -162 -54 -222 -88 -77 -235 -46 -286
59 -76 159 77 329 237 263z m-850 -285 c268 -65 499 -257 618 -515 105 -228
105 -522 0 -750 -224 -484 -790 -681 -1259 -438 -93 49 -91 48 -82 32 5 -8 4
-11 -1 -6 -5 5 -9 14 -9 20 0 7 -9 11 -18 11 -10 -1 -16 1 -13 4 8 7 -24 42
-37 42 -6 0 -2 -10 9 -22 17 -21 16 -21 -9 1 -15 14 -25 27 -22 30 7 7 -87
101 -96 96 -4 -3 -13 3 -20 12 -10 12 -10 14 -1 9 6 -4 12 -3 12 2 0 13 -35
43 -42 36 -3 -3 -9 0 -14 7 -5 8 -3 10 6 4 8 -5 11 -3 8 6 -3 8 -10 14 -15 14
-6 0 -15 4 -20 9 -5 5 -2 6 6 1 7 -4 12 -4 9 1 -2 5 -25 52 -50 104 -71 144
-92 237 -92 400 0 109 4 151 22 219 100 370 390 631 770 691 82 13 243 3 340
-20z m-1018 -1360 c6 -11 8 -20 6 -20 -3 0 -10 9 -16 20 -6 11 -8 20 -6 20 3
0 10 -9 16 -20z m350 -346 c0 -2 -9 0 -20 6 -11 6 -20 13 -20 16 0 2 9 0 20
-6 11 -6 20 -13 20 -16z"/>
<path d="M4568 4639 c-21 -12 -24 -59 -6 -77 19 -19 66 -15 78 7 29 54 -20
101 -72 70z"/>
<path d="M3490 4369 c-36 -5 -102 -23 -147 -38 -218 -75 -404 -263 -477 -481
-91 -274 -28 -570 167 -778 65 -69 166 -145 184 -138 8 3 11 1 8 -4 -8 -13 91
-56 185 -82 96 -25 266 -28 362 -5 263 64 479 259 562 507 56 170 55 337 -3
508 -38 109 -81 180 -166 270 -109 116 -214 179 -365 221 -85 24 -224 33 -310
20z"/>
<path d="M1951 2584 c1 -21 5 -50 9 -64 5 -16 6 -2 3 35 -7 69 -13 86 -12 29z"/>
<path d="M2115 2535 c10 -73 80 -199 149 -268 54 -54 166 -127 192 -127 5 0
-20 16 -56 35 -126 68 -229 197 -272 340 -14 47 -17 51 -13 20z"/>
<path d="M1975 2465 c16 -82 119 -250 197 -320 32 -29 32 -29 -3 10 -86 94
-140 181 -181 290 -10 28 -16 37 -13 20z"/>
<path d="M2240 2090 c40 -35 180 -107 225 -115 17 -3 8 3 -20 13 -69 26 -131
58 -190 99 -49 33 -50 33 -15 3z"/>
<path d="M2520 1960 c25 -8 107 -13 99 -6 -2 2 -31 6 -64 9 -37 3 -51 2 -35
-3z"/>
</g>
</svg>
