<?xml version="1.0" standalone="no"?>
<!DOCTYPE svg PUBLIC "-//W3C//DTD SVG 20010904//EN"
 "http://www.w3.org/TR/2001/REC-SVG-20010904/DTD/svg10.dtd">
<svg version="1.0" xmlns="http://www.w3.org/2000/svg"
 width="24.000000pt" height="24.000000pt" viewBox="0 0 24.000000 24.000000"
 preserveAspectRatio="xMidYMid meet">

<g transform="translate(0.000000,24.000000) scale(0.100000,-0.100000)"
fill="#000000" stroke="none">
<path d="M39 194 c-21 -25 -18 -129 4 -151 25 -25 129 -25 154 0 22 22 25 126
4 151 -19 23 -143 23 -162 0z m149 -6 c7 -7 12 -37 12 -68 0 -31 -5 -61 -12
-68 -16 -16 -120 -16 -136 0 -16 16 -16 120 0 136 16 16 120 16 136 0z"/>
<path d="M160 170 c0 -5 -13 -7 -28 -4 -50 10 -82 -45 -46 -80 35 -36 90 -4
80 46 -3 15 -1 28 4 28 6 0 10 5 10 10 0 6 -4 10 -10 10 -5 0 -10 -4 -10 -10z
m-15 -50 c0 -18 -6 -26 -23 -28 -24 -4 -38 18 -28 44 3 9 15 14 28 12 17 -2
23 -10 23 -28z"/>
</g>
</svg>
